<?xml version="1.0" encoding="UTF-8"?>
<svg width="1200pt" height="1200pt" version="1.1" viewBox="0 0 1200 1200" xmlns="http://www.w3.org/2000/svg">
 <style>
  path { fill: #000000; }
  @media (prefers-color-scheme: dark) {
   path { fill: #ffffff; }
  }
 </style>
 <path d="m570.74 665.95-122.16 141.74c-4.3594 4.9688-10.5 7.5938-16.641 7.5938-1.7344 0-3.7969-0.28125-5.5312-0.89062l-244.22-64.078c-2.5781-0.70312-5.1562 1.2656-5.1562 3.9375v291.42c0 1.875 1.2656 3.4688 3.0469 3.9375l392.72 103.22c2.5781 0.70312 5.1562-1.2656 5.1562-3.9375l-0.046875-480.28c0.046875-3.7969-4.6875-5.5781-7.1719-2.6719z"/>
 <path d="m1017.5 750.32-243.94 64.078c-1.7344 0.60938-3.7969 0.89062-5.5312 0.89062-6.4219 0-12.562-2.625-16.641-7.5938l-122.48-142.03c-2.4844-2.8594-7.1719-1.125-7.1719 2.6719v480.61c0 2.6719 2.5312 4.6406 5.1562 3.9375l392.72-103.22c1.7812-0.46875 3.0469-2.1094 3.0469-3.9375l-0.046875-291.47c0-2.6719-2.5312-4.6406-5.1094-3.9375z"/>
 <path d="m1169 659.34-130.4-150.74c-1.0312-1.1719-2.625-1.6875-4.125-1.2656l-388.6 101.91c-2.9062 0.75-4.0312 4.3594-2.0625 6.6562l130.13 150.74c1.0312 1.1719 2.625 1.6875 4.125 1.2656l388.82-101.91c2.9531-0.79688 4.0781-4.3594 2.1094-6.6562z"/>
 <path d="m426.05 766.6 130.13-150.74c1.9688-2.2969 0.84375-5.8594-2.0625-6.6562l-388.87-101.91c-1.5-0.375-3.1406 0.09375-4.125 1.2656l-130.13 150.79c-1.9688 2.2969-0.84375 5.8594 2.0625 6.6562l388.82 101.91c1.5469 0.375 3.1406-0.14062 4.1719-1.3125z"/>
 <path d="m756.37 480.05c0 19.172-1.9219 38.109-6.0469 56.484l183.42-48.234 33.703-364.64c2.2031-25.219-16.172-47.438-41.391-49.875l-286.5-26.625c-25.219-2.2031-47.438 16.172-49.641 41.391l-12.891 138.47c4.125 1.3594 8.2031 3 12.328 4.6406 101.48 41.391 167.02 138.74 167.02 248.39zm98.062-324.84c1.125-12.047 11.812-21.094 23.859-19.828 12.047 1.125 20.953 11.812 19.828 23.859l-11.344 122.44c-1.0312 11.391-10.594 19.922-21.797 19.922-0.70312 0-1.3594-0.046875-2.0625-0.09375-12.047-1.125-20.953-11.812-19.828-23.859z"/>
 <path d="m712.5 480.05c0-93.75-57.562-174.37-139.55-207.79-26.297-10.688-54.844-16.734-84.984-16.734-123.94 0-224.53 100.64-224.53 224.53 0 2.4844 0 5.2031 0.28125 7.6875l282.37 74.297 52.641 13.688c0.84375 0.28125 1.3594 0.28125 2.2031 0l100.64-26.297c7.0781-21.656 10.922-45.234 10.922-69.375zm-224.53-114.84c-34.266 0-66.422 15.188-88.266 41.719-4.3125 5.25-10.594 7.9688-16.922 7.9688-4.9219 0-9.8438-1.6406-13.922-5.0156-9.3281-7.6875-10.688-21.516-2.9531-30.891 30.234-36.656 74.719-57.703 122.11-57.703 12.141 0 21.938 9.7969 21.938 21.938-0.09375 12.141-9.8906 21.984-21.984 21.984z"/>
</svg>
